<svg xmlns="http://www.w3.org/2000/svg" xmlns:xlink="http://www.w3.org/1999/xlink" version="1.1" id="Calque_1" x="0px" y="0px" width="100px" height="100px" viewBox="0 0 100 100" enable-background="new 0 0 100 100" xml:space="preserve">
<path d="M49.755,0.107c-27.57,0-50,22.43-50,50c0,27.571,22.43,50,50,50s50-22.43,50-50C99.755,22.537,77.325,0.107,49.755,0.107z   M49.755,93.885c-24.139,0-43.778-19.639-43.778-43.778c0-24.14,19.639-43.778,43.778-43.778c24.14,0,43.777,19.639,43.777,43.778  C93.532,74.246,73.895,93.885,49.755,93.885z"/>
<path d="M82.611,50.914h-1.341c-0.447,0-0.81-0.362-0.81-0.81s0.362-0.81,0.81-0.81h1.341c0.446,0,0.809,0.362,0.809,0.81  S83.058,50.914,82.611,50.914L82.611,50.914z"/>
<path d="M18.239,50.917h-1.339c-0.447,0-0.81-0.362-0.81-0.81s0.363-0.81,0.81-0.81h1.339c0.447,0,0.81,0.362,0.81,0.81  S18.686,50.917,18.239,50.917L18.239,50.917z"/>
<path d="M18.507,61.068c-0.342,0-0.659-0.217-0.77-0.561c-0.138-0.424,0.095-0.881,0.521-1.02l1.275-0.412  c0.425-0.139,0.882,0.094,1.02,0.52c0.138,0.426-0.095,0.883-0.521,1.02l-1.275,0.414C18.674,61.057,18.59,61.068,18.507,61.068  L18.507,61.068z"/>
<path d="M23.176,70.229c-0.25,0-0.498-0.117-0.656-0.334c-0.262-0.363-0.182-0.869,0.18-1.131l1.084-0.787  c0.362-0.264,0.868-0.182,1.13,0.18c0.263,0.361,0.182,0.867-0.18,1.131l-1.084,0.787C23.507,70.178,23.34,70.229,23.176,70.229  L23.176,70.229z"/>
<path d="M68.277,25.419c-0.165,0-0.332-0.05-0.475-0.154c-0.362-0.263-0.443-0.769-0.18-1.131l0.787-1.085  c0.262-0.362,0.769-0.442,1.131-0.18c0.361,0.263,0.441,0.769,0.18,1.131l-0.787,1.085C68.775,25.303,68.527,25.419,68.277,25.419  L68.277,25.419z"/>
<path d="M31.23,25.42c-0.25,0-0.497-0.116-0.656-0.334l-0.788-1.084c-0.263-0.362-0.183-0.868,0.179-1.131  c0.362-0.264,0.868-0.184,1.131,0.179l0.788,1.084c0.263,0.362,0.183,0.868-0.179,1.131C31.562,25.37,31.396,25.42,31.23,25.42  L31.23,25.42z"/>
<path d="M76.336,70.227c-0.165,0-0.332-0.049-0.475-0.154l-1.086-0.787c-0.361-0.264-0.441-0.77-0.18-1.131  c0.264-0.361,0.77-0.443,1.131-0.18l1.086,0.787c0.361,0.264,0.441,0.77,0.18,1.131C76.833,70.111,76.586,70.227,76.336,70.227  L76.336,70.227z"/>
<path d="M81.002,61.068c-0.082,0-0.167-0.014-0.25-0.041l-1.274-0.414c-0.425-0.137-0.659-0.594-0.521-1.02  c0.139-0.424,0.594-0.658,1.02-0.52l1.275,0.414c0.426,0.137,0.658,0.594,0.52,1.02C81.661,60.85,81.344,61.068,81.002,61.068  L81.002,61.068z"/>
<path d="M79.727,41.176c-0.342,0-0.658-0.217-0.77-0.559c-0.139-0.426,0.094-0.883,0.52-1.021l1.274-0.416  c0.428-0.14,0.882,0.095,1.021,0.52s-0.094,0.882-0.52,1.021l-1.275,0.415C79.895,41.164,79.81,41.176,79.727,41.176L79.727,41.176z  "/>
<path d="M75.251,32.39c-0.251,0-0.497-0.115-0.655-0.333c-0.264-0.362-0.184-0.868,0.178-1.132l1.085-0.788  c0.361-0.264,0.868-0.184,1.132,0.179c0.262,0.361,0.182,0.868-0.18,1.131l-1.084,0.788C75.582,32.339,75.416,32.39,75.251,32.39  L75.251,32.39z"/>
<path d="M59.492,20.943c-0.083,0-0.168-0.013-0.25-0.039c-0.426-0.139-0.658-0.596-0.52-1.021l0.414-1.275  c0.138-0.425,0.594-0.658,1.02-0.52s0.658,0.595,0.521,1.021l-0.415,1.275C60.15,20.726,59.834,20.943,59.492,20.943L59.492,20.943z  "/>
<path d="M49.754,19.401c-0.447,0-0.81-0.362-0.81-0.81V17.25c0-0.447,0.362-0.81,0.81-0.81s0.81,0.362,0.81,0.81v1.341  C50.564,19.039,50.202,19.401,49.754,19.401L49.754,19.401z"/>
<path d="M40.016,20.944c-0.341,0-0.658-0.217-0.77-0.559l-0.416-1.274c-0.139-0.425,0.093-0.882,0.518-1.021  c0.425-0.14,0.882,0.093,1.021,0.518l0.416,1.274c0.139,0.425-0.093,0.883-0.518,1.021C40.184,20.931,40.099,20.944,40.016,20.944  L40.016,20.944z"/>
<path d="M24.258,32.393c-0.165,0-0.332-0.051-0.475-0.154l-1.085-0.789c-0.362-0.263-0.442-0.769-0.18-1.13  c0.263-0.362,0.769-0.442,1.131-0.18l1.085,0.788c0.362,0.263,0.442,0.769,0.18,1.131C24.755,32.277,24.509,32.393,24.258,32.393  L24.258,32.393z"/>
<path d="M19.783,41.177c-0.083,0-0.167-0.013-0.25-0.039l-1.276-0.413c-0.425-0.138-0.659-0.594-0.521-1.02s0.594-0.659,1.02-0.521  l1.276,0.413c0.425,0.138,0.659,0.595,0.521,1.02C20.442,40.959,20.125,41.177,19.783,41.177L19.783,41.177z"/>
<circle cx="34.62" cy="66.207" r="1.297"/>
<path d="M59.289,59.992c-1.402,1.344-2.735,1.391-2.791,1.391l-0.084,0.002L50.197,54.1c-1.246,0.137-2.494-0.314-3.355-1.221  c-0.97-1.02-1.334-2.482-0.962-3.839L26.864,26.754l0.033-0.032c-0.051-0.169-0.007-0.354,0.125-0.481  c0.131-0.125,0.318-0.161,0.483-0.104l0.029-0.027l0.127,0.109l21.268,19.956c1.358-0.283,2.782,0.156,3.736,1.158  c0.856,0.9,1.241,2.114,1.063,3.346l7.016,6.583l-0.002,0.08C60.742,57.395,60.694,58.648,59.289,59.992L59.289,59.992z"/>
<g>
	<path d="M49.755,22.707c-6.529,0-12.53,2.299-17.243,6.126l1.134,1.064c4.422-3.532,10.021-5.651,16.108-5.651   c14.261,0,25.862,11.601,25.862,25.861c0,5.524-1.718,10.795-4.967,15.241c-0.25,0.344-0.176,0.824,0.168,1.074   c0.344,0.252,0.824,0.178,1.074-0.166c3.442-4.713,5.262-10.297,5.262-16.149C77.154,34.999,64.863,22.707,49.755,22.707z"/>
	<path d="M23.893,50.107c0-6.542,2.447-12.521,6.467-17.081l-1.009-1.183c-4.347,4.851-6.997,11.252-6.997,18.263   c0,5.868,1.829,11.463,5.288,16.182c0.15,0.207,0.384,0.314,0.621,0.314c0.158,0,0.317-0.049,0.454-0.148   c0.343-0.25,0.417-0.732,0.166-1.074C25.618,60.928,23.893,55.645,23.893,50.107z"/>
</g>
<circle fill="#000000" cx="49.755" cy="50.106" r="2.599"/>
<path d="M49.755,10.383c-21.903,0-39.723,17.82-39.723,39.724c0,21.903,17.82,39.723,39.723,39.723  c21.903,0,39.724-17.82,39.724-39.723C89.479,28.204,71.658,10.383,49.755,10.383z M49.755,14.215  c19.791,0,35.892,16.101,35.892,35.892c0,7.71-2.427,15.06-6.922,21.174c-1.018,1.384-3.561,3.953-7.583,3.953s-42.918,0-42.918,0  c-3.728,0-6.633-2.82-7.725-4.35c-4.311-6.035-6.635-13.233-6.634-20.778C13.864,30.316,29.964,14.215,49.755,14.215z"/>
<path fill="#000000" d="M38.655,77.826c-1.737,0-3.151,1.367-3.151,3.047c0,1.678,1.414,3.045,3.151,3.045H60.49  c1.738,0,3.152-1.367,3.152-3.045c0-1.68-1.414-3.047-3.152-3.047H38.655L38.655,77.826z"/>
</svg>