<?xml version="1.0" encoding="utf-8"?>
<!-- Generator: Adobe Illustrator 15.0.0, SVG Export Plug-In . SVG Version: 6.00 Build 0)  -->
<!DOCTYPE svg PUBLIC "-//W3C//DTD SVG 1.1//EN" "http://www.w3.org/Graphics/SVG/1.1/DTD/svg11.dtd">
<svg version="1.1" id="Letter_forms" xmlns="http://www.w3.org/2000/svg" xmlns:xlink="http://www.w3.org/1999/xlink" x="0px"
	 y="0px" width="250px" height="27.7px" viewBox="0 0 250 27.7" style="enable-background:new 0 0 250 27.7;" xml:space="preserve">
<g>
	<path class="st0" d="M248.3,20c-1.9,0-2.3,1.9-2.3,2.3c0,0.9-0.8,2.8-4,2.8c-2.5,0-4.2-0.5-5.7-1.1c0.6-1.1,0.9-2.2,0.9-3.2
		c0-4.6-4.2-7.9-5.9-9.1c-1-0.8-4.1-2.6-4.1-2.6c0.7-2.5-1.1-2.7-1.5-2.7c-0.4,0-2.7,0.6-2.7,2.6c0,0.9,0.5,1.6,1.3,2.3
		c-3.6,10.8-9.6,13.1-14.1,13.1c-2.9,0-5.6-2-6.3-4.8c5,0,9.2-0.2,12-3.6c4.2-5.1,0.2-9-5.1-9c-6.2,0-10.5,3.7-11.8,9.7
		c-0.2,1.1-0.2,2.3,0,3.4l-0.2-0.1c-3.3,3.3-5.4,3.6-5.8,3.7c-0.4,0.2-2.6,0.2-2-2.3c0.4-1.7,1.7-8.9,2.9-13.4h-4.9
		c-0.3,1.5-0.6,3-0.8,3.4c-0.1,0.2-0.5,2-1,4.3c-0.9,3.5-2.9,5.2-3.6,5.7c-2.1,2.2-3.9,2.6-5.5,2.6c-1.1,0-2.9-1.4-2.3-4.3
		c0.8-3.9,3.3-7.3,7.9-7.3l1-4.8l-9.9,0.5c-0.2-0.6-0.9-1.7-2.1-1.7c-0.3,0-2,0.1-2.4,2c-0.3,1.3,0.2,2,0.8,2.6
		c-0.7,0.8-2.4,1.4-4,1.6c-1.2-3.2-4.1-5.5-7.7-5.5c-6.2,0-10.5,3.7-11.8,9.7c-0.2,1.1-0.2,2.3,0,3.6c-3.2,3.1-5.2,3.3-5.6,3.5
		c-0.4,0.2-2.6,0-2-2.6c0.3-1.4,1.4-6.4,2.4-11.7h5.7l0.4-1.5h-5.7c0.2-0.8,0.2-1.3,0.4-1.7c0.8-3.3-2.8-5.8-6.3-5.8
		c-1.8,0-4.3,0.8-5.4,1.8c-1.1-1.1-2.9-1.9-5.5-1.9c-5.3,0-6.9,3.8-7.3,5.4c-0.4,1.7,0.3,3.2,1,4.7c0.8,1.4,3.6,7.3,4.1,8.2
		c0.5,0.9,0.7,1.9,0.7,3s-1.5,4-3.9,4c-2.2,0-3.6-0.8-4.7-3.9c0.4-0.6,0.5-1,0.5-1c0.8-1.2,1.5-3.9-0.8-3.9c-2.6,0-3,2.6-3.2,3.9
		c-0.1,0.4-0.1,1,0.2,1.7c-1.5,1.1-2.8,1.3-4,1.3c-1.1,0-2.9-1.4-2.3-4.3c0.8-3.9,3.3-7.3,7.9-7.3l1-4.8L105,8.2
		c-0.2-0.6-0.9-1.7-2.1-1.7c-0.3,0-2,0.1-2.4,2c-0.3,1.3,0.2,2,0.8,2.6c-0.7,0.8-2.4,1.4-4.1,1.6C95.9,9.3,93.1,7,89.4,7
		c-6.2,0-10.5,3.7-11.8,9.7c-0.2,1.2-0.2,2.4,0,3.6c-3.2,3-5.1,3.2-5.5,3.3c-0.4,0.2-2.6,0-2-2.6c0.3-1.6,1.4-6.4,2.5-11.7h5.7
		l0.4-1.5H73c0.8-4.5,1.6-7.5,1.6-7.5l-5.1,1.6c-0.5,2.5-0.7,4.2-2.1,6.6c-1.4,2.3-3.6,3.6-6.3,3.7C59.9,9.2,57,7,53.5,7
		c-6.2,0-10.5,3.7-11.8,9.7c-0.2,1.2-0.2,2.4,0,3.6c-3.2,3.1-5.1,3.2-5.5,3.4c-0.4,0.2-2.6,0.1-2-2.5c0.4-1.9,2.9-13.7,4-19
		c0.2-1.2-0.7-1.9-1.3-1.9c-0.5,0-1.2,0-1.4,0c-1.7,0-3.2,1.8-4.4,3.6C30.9,4,20.5,18.4,20.5,18.4c0.4-1.9,2.9-13.3,3.5-16.3
		c0.2-1.1-0.2-1.7-1.4-1.7c-0.5,0-0.8,0-1.4,0c-0.9,0-1.8,0.4-2.7,1.6C18.5,2.7,7.2,17.6,6.8,18.8c0.2-1,3.6-17.1,3.6-17.1
		C10.5,1.3,9.8,0.3,9,0.3S4.1,1,4.1,1L3.6,3.5c0,0,1.5,0,1.4,0.1L0,26.9h5c0,0,13.3-19.3,13.3-19.3c-1.1,5.2-2.9,13.8-3.7,17.4
		c-0.5,2.1,0.5,2.6,1,2.6c0.5,0,1.8,0,2,0c0.8,0,1.5-0.9,1.7-1.2c1.5-2,12.8-18.5,13.1-18.9l-3.2,15.3c-0.8,3.8,1.8,4.7,4,4.7
		c3.2,0,6.5-1.9,9.6-5.4c1.3,3,4.1,5.4,7.5,5.4c6.1,0,10.5-4.4,11.7-10c0.2-1.1,0.3-2.3,0.1-3.4c3.2-0.5,4.5-2,5.6-3.1l-2.5,11.7
		c-0.8,3.8,1.8,4.7,4,4.7c3.2,0,6.5-1.9,9.5-5.3c1.3,3,4.1,5.4,7.5,5.4c6.1,0,10.5-4.4,11.7-10c0.2-1.1,0.3-2.3,0.2-3.3
		c3.2-0.3,5.4-2.3,5.4-2.3c2.5,0.3,4.6,0.1,4.6,0.1c-2.9,1.7-5,4.6-5.8,8.3c-1.1,5.4,1.4,7.3,3.8,7.3s4.9-0.7,7.3-2.7
		c0.1-0.1,0.2-0.2,0.3-0.3c1.1,1.6,3.1,3,6.6,3c6.8,0,9.2-3.3,9.7-5.7c0.5-2.3-0.7-4.4-0.8-4.7c-0.2-0.3-4.5-9.1-4.8-9.4
		c-0.2-0.4-0.6-1.7-0.5-2.7c0.2-1.4,2.2-2.5,3.2-2.5c1.1,0,2.2,1,2.6,1.7c0,0-0.1,0.4-0.2,0.8c-0.5,1.8,1,2.9,1.7,2.9
		s1.5-0.2,1.9-1.5c0.1-0.4,0.1-0.8,0-1.4c0.3-1.6,1.4-2.6,2.9-2.6c1.7,0,2.4,2.1,2.2,3.2s-1,5.1-1.1,5.6c-0.2,0.5-2.5,11.7-2.5,11.7
		c-0.8,3.8,1.8,4.7,4,4.7c3.2,0,6.6-1.9,9.6-5.4c1.3,3,4.1,5.4,7.5,5.4c6.1,0,10.5-4.4,11.7-10c0.2-1.1,0.3-2.3,0.2-3.3
		c3.2-0.3,5.4-2.3,5.4-2.3c2.5,0.3,4.6,0.1,4.6,0.1c-2.9,1.7-5,4.6-5.8,8.3c-1.1,5.4,1.4,7.3,3.8,7.3s4.9-0.7,7.3-2.7
		c1.6-1.4,2.6-2.6,3.2-3.3c-0.2,0.8-0.3,1.4-0.3,1.4c-0.8,3.8,1.8,4.7,4,4.7c3.3,0,6.8-2,9.9-5.7c1.2,3.2,4.1,5.7,7.6,5.7
		c11.8,0,16.8-8.8,19-14.9v-0.1l0,0c0.9,0.8,2,1.7,3.2,2.9c1.8,1.7,2.6,3.8,2.5,5.4c-0.7-0.4-1.4-0.6-2.2-0.7c-0.2,0-0.5,0-0.7,0
		c-2,0-2.9,1.7-2.9,3.5c0,2.6,3.1,3.8,3.9,3.8c2,0,3.6-0.8,4.8-1.9c1.9,1,4.2,1.8,6.3,1.8c7,0,8.9-4.2,8.9-5.7
		C250.1,21.6,249.9,20,248.3,20z M56.7,17.7c-1,4.5-3.9,8-6.1,8c-2.8,0-3.9-4.8-3.1-8.8c1.1-4.8,3.3-7.9,6-7.9
		C56.4,9,57.6,13.2,56.7,17.7z M92.6,17.7c-1,4.5-3.9,8-6.1,8c-2.8,0-3.9-4.8-3.1-8.8c1.1-4.8,3.3-7.9,6-7.9
		C92.2,9,93.5,13.2,92.6,17.7z M162.1,17.7c-1,4.5-3.9,8-6.1,8c-2.8,0-3.9-4.8-3.1-8.8C154,12,156.2,9,159,9
		C161.7,9,163.1,13.2,162.1,17.7z M203.9,16.8c1.1-4.8,3.9-7.8,6.6-7.8s3.9,5.6-0.5,7.9c-2.1,1.1-4.6,0.9-6.2,0.8
		C203.8,17.5,203.8,17.2,203.9,16.8z"/>
	<ellipse transform="matrix(0.9848 0.1739 -0.1739 0.9848 3.3602 -33.3832)" class="st0" cx="192.2" cy="2.5" rx="2.3" ry="2.5"/>
</g>
</svg>
