<?xml version="1.0" encoding="utf-8"?>
<!-- Generator: Adobe Illustrator 17.0.0, SVG Export Plug-In . SVG Version: 6.00 Build 0)  -->
<!DOCTYPE svg PUBLIC "-//W3C//DTD SVG 1.1//EN" "http://www.w3.org/Graphics/SVG/1.1/DTD/svg11.dtd">
<svg version="1.1" id="Layer_1" xmlns="http://www.w3.org/2000/svg" xmlns:xlink="http://www.w3.org/1999/xlink" x="0px" y="0px"
	 width="72px" height="72px" viewBox="0 0 72 72" enable-background="new 0 0 72 72" xml:space="preserve">
<g>
	<g>
		<polygon points="67.074,61.522 71.923,56.672 71.923,43.331 57.722,57.534 61.712,61.522 		"/>
	</g>
	<g>
		<polygon points="14.326,57.534 0.125,43.331 0.125,56.672 4.975,61.522 10.337,61.522 		"/>
	</g>
	<path d="M61.178,10.478H50.45L38.152,22.776l-4.255-0.001L21.599,10.478H10.871L0.143,21.205v10.728l29.051,29.051l13.662,0.001
		l29.051-29.051V21.205L61.178,10.478z M39.758,53.352l-7.468-0.001L5.507,26.569l10.728-10.727L30.63,30.236l0.005-0.005
		l0.131,0.131L41.2,30.362l0.152-0.152l0.046,0.046l14.415-14.415l10.728,10.727L39.758,53.352z"/>
	<rect x="49.332" y="19.489" transform="matrix(-0.7071 -0.7071 0.7071 -0.7071 80.9621 83.4822)" width="16.878" height="10.968"/>
	<rect x="6.116" y="19.489" transform="matrix(0.7071 -0.7071 0.7071 0.7071 -13.3956 17.6065)" width="16.878" height="10.968"/>
	<g>
		<path d="M34.185,36.601l-7.26,6.704c2.082,2.76,5.377,4.551,9.098,4.551c3.723,0,7.019-1.792,9.1-4.553l-7.258-6.701
			L34.185,36.601z"/>
	</g>
</g>
</svg>
