<svg xmlns="http://www.w3.org/2000/svg" xmlns:xlink="http://www.w3.org/1999/xlink" version="1.1" x="0px" y="0px" width="72px" height="72px" viewBox="0 0 72 72" enable-background="new 0 0 72 72" xml:space="preserve"><g><g><polygon points="67.1,61.5 71.9,56.7 71.9,43.3 57.7,57.5 61.7,61.5"/></g><g><polygon points="14.3,57.5 0.1,43.3 0.1,56.7 5,61.5 10.3,61.5"/></g><path d="M61.178 10.478H50.45L38.152 22.776l-4.255-0.001L21.599 10.478H10.871L0.143 21.205v10.728l29.051 29.051l13.662 0 l29.051-29.051V21.205L61.178 10.478z M39.758 53.352l-7.468-0.001L5.507 26.569l10.728-10.727L30.63 30.236l0.005-0.005 l0.131 0.131L41.2 30.362l0.152-0.152l0.046 0.046l14.415-14.415l10.728 10.727L39.758 53.352z"/><rect x="49.3" y="19.5" transform="matrix(-0.7071 -0.7071 0.7071 -0.7071 80.9621 83.4822)" width="16.9" height="11"/><rect x="6.1" y="19.5" transform="matrix(0.7071 -0.7071 0.7071 0.7071 -13.3956 17.6065)" width="16.9" height="11"/><g><path d="M34.185 36.601l-7.26 6.704c2.082 2.8 5.4 4.6 9.1 4.551c3.723 0 7.019-1.792 9.1-4.553l-7.258-6.701 L34.185 36.601z"/></g></g></svg>