<svg xmlns="http://www.w3.org/2000/svg" xmlns:xlink="http://www.w3.org/1999/xlink" version="1.1" id="Ebene_1" x="0px" y="0px" width="100px" height="100px" viewBox="0 0 100 100" enable-background="new 0 0 100 100" xml:space="preserve">
<path d="M29.614,53.9c-1.075,0-1.947,0.873-1.947,1.943c0,1.079,0.872,1.951,1.947,1.951c1.071,0,1.943-0.872,1.943-1.951  C31.558,54.773,30.685,53.9,29.614,53.9z"/>
<path d="M14.518,81.354l3.589,12.345h81.045c0,0,0-4.909,0-12.345H14.518z"/>
<path d="M99.151,80.339c0-23.472,0-69.846,0-71.737c0-2.538-2.197-1.864-2.197-1.864L39.762,6.742c0,0-2.367-0.17-9.644,2.705  S0.848,34.318,0.848,34.318l13.376,46.021H99.151z M29.868,59.357H17.686c-1.499,0-2.784-0.904-3.339-2.197h10.358  c0.654,0,1.186-0.531,1.186-1.182c0-0.654-0.531-1.186-1.186-1.186H14.232c0.42-1.547,1.772-2.709,3.454-2.709h12.182  c2.007,0,3.637,1.63,3.637,3.641C33.505,57.731,31.875,59.357,29.868,59.357z M41.618,12.111c13.031,0,52.623,0,52.623,0v35.873  H11.503L7.272,36.139C7.272,36.139,28.587,12.111,41.618,12.111z"/>
</svg>