<svg xmlns="http://www.w3.org/2000/svg" xmlns:xlink="http://www.w3.org/1999/xlink" version="1.1" id="Calque_1" x="0px" y="0px" width="100px" height="100px" viewBox="0 0 100 100" enable-background="new 0 0 100 100" xml:space="preserve">
<g>
	<circle fill="#000000" cx="50" cy="50.134" r="4.782"/>
	<path fill="#000000" d="M50,4.5C24.871,4.5,4.5,24.871,4.5,50c0,25.129,20.371,45.5,45.5,45.5c25.129,0,45.5-20.371,45.5-45.5   C95.5,24.871,75.129,4.5,50,4.5z M15.272,35.95C20.831,22.227,34.284,12.545,50,12.545c15.741,0,29.213,9.711,34.753,23.469   c0.004,0.544-0.182,1.647-1.635,2.142c0,0-1.071,0.134-0.804,1.654c0,0,0.02,0.149,0.055,0.404L64.331,42.58   c0,0-4.887,0.716-7.388-1.43c0,0-6.14-5.305-14.303,0.358c0,0-1.073,1.49-6.199,1.132l-18.793-2.328   c0.037-0.275,0.059-0.437,0.059-0.437c0.268-1.52-0.804-1.653-0.804-1.653C15.323,37.684,15.243,36.424,15.272,35.95z    M76.861,45.616l-12.354,2.496c-0.605,0.122-1.164-0.122-1.25-0.547c-0.086-0.424,0.336-0.865,0.94-0.988l12.354-2.496   c0.604-0.122,1.163,0.123,1.249,0.546C77.889,45.051,77.467,45.494,76.861,45.616z M50.419,75.168   c-0.004,0.617-0.358,1.115-0.791,1.113c-0.432-0.002-0.78-0.506-0.777-1.122l0.074-12.067c0.003-0.617,0.356-1.115,0.789-1.113   s0.78,0.504,0.777,1.122L50.419,75.168z M50,60.906c-5.85,0-10.593-4.742-10.593-10.593c0-5.85,4.743-10.593,10.593-10.593   s10.593,4.743,10.593,10.593C60.593,56.164,55.85,60.906,50,60.906z M37.445,47.639c-0.085,0.425-0.645,0.67-1.25,0.547   L23.84,45.689c-0.605-0.122-1.025-0.565-0.939-0.988c0.085-0.425,0.645-0.67,1.25-0.547l12.355,2.496   C37.111,46.772,37.531,47.216,37.445,47.639z M44.162,84.139c-0.356,1.806-2.025,2.313-2.399,2.405   c-16.488-3.7-28.864-18.272-29.208-35.795c0.354-2.448,2.918-2.201,2.918-2.201c0.714,0.044,0.893-0.761,0.893-0.761   c0.063-0.171,0.137-0.457,0.214-0.815c2.94,0.584,17.635,3.713,23.2,8.959c0,0,7.179,4.559,5.914,27.188   C44.151,83.058,44.162,84.139,44.162,84.139z M57.131,86.773c-2.449-0.04-2.546-2.597-2.546-2.597   c-0.052-0.714-0.872-0.784-0.872-0.784c-0.136-0.03-0.337-0.057-0.584-0.081c0.003-1.798,0.187-19.495,5.841-25.712   c0,0,3.146-6.17,24.499-10.571c0.067,0.302,0.13,0.54,0.188,0.692c0,0,0.179,0.805,0.894,0.76c0,0,2.479-0.238,2.898,2.083   C87.182,68.559,74.228,83.479,57.131,86.773z"/>
	<path fill="#000000" d="M50,40.197c-5.587,0-10.115,4.529-10.115,10.116C39.885,55.9,44.413,60.43,50,60.43   c5.586,0,10.115-4.529,10.115-10.117C60.115,44.727,55.586,40.197,50,40.197z M56.154,44.805c0.604-0.383,1.406-0.204,1.79,0.401   c0.385,0.604,0.203,1.405-0.401,1.788c-0.604,0.384-1.405,0.205-1.787-0.399C55.371,45.99,55.551,45.189,56.154,44.805z M50,40.838   c0.715,0,1.296,0.58,1.296,1.296c0,0.716-0.581,1.296-1.296,1.296s-1.296-0.58-1.296-1.296C48.704,41.418,49.285,40.838,50,40.838z    M41.839,45.565c0.355-0.621,1.147-0.836,1.769-0.479s0.836,1.148,0.479,1.77c-0.355,0.621-1.148,0.835-1.769,0.479   C41.697,46.979,41.483,46.187,41.839,45.565z M43.844,55.687c-0.604,0.384-1.405,0.203-1.788-0.401   c-0.384-0.604-0.204-1.405,0.4-1.787c0.604-0.385,1.405-0.206,1.788,0.398C44.629,54.501,44.448,55.302,43.844,55.687z M50,59.654   c-0.715,0-1.296-0.579-1.296-1.297c0-0.715,0.581-1.296,1.296-1.296s1.296,0.581,1.296,1.296   C51.296,59.075,50.715,59.654,50,59.654z M50,55.9c-3.184,0-5.766-2.581-5.766-5.766c0-3.184,2.582-5.766,5.766-5.766   c3.185,0,5.765,2.582,5.765,5.766C55.765,53.319,53.185,55.9,50,55.9z M56.393,55.405c-0.621-0.355-0.835-1.146-0.479-1.768   c0.356-0.621,1.147-0.836,1.769-0.48c0.621,0.356,0.836,1.147,0.479,1.769S57.014,55.762,56.393,55.405z"/>
</g>
</svg>