<svg xmlns="http://www.w3.org/2000/svg" xmlns:xlink="http://www.w3.org/1999/xlink" version="1.0" x="0px" y="0px" width="100px" height="100px" viewBox="0 0 100 100" overflow="" enable-background="new 0 0 100 100" xml:space="preserve">
    <path d="M85.403,72.718c-0.094-1.257-0.722-2.363-1.66-3.09c0.984-0.764,1.636-1.885,1.679-3.221 c0,0-0.005-7.849-0.005-8.027c0-1.392-0.656-2.621-1.674-3.408c0.984-0.765,1.627-1.946,1.669-3.273l0.02-10.1 c0-1.346-0.671-1.979-1.613-2.241l-14.723-3.98l-0.037-14.502c0-13.372-6.699-20.78-18.328-20.78 c-10.422,0-18.88,5.086-18.88,20.859v18.854l-16.054,4.542c-0.933,0.263-1.82,1.434-1.82,2.442l-0.014,12.384h0.009 c0.047,1.405,0.722,2.648,1.763,3.45c-1.079,0.83-1.768,2.128-1.768,3.592v0.033l-0.01-0.01l-0.004,7.445h0.009v0.075h0.009 c0.047,1.406,0.722,2.645,1.763,3.446c-0.994,0.764-1.65,1.932-1.749,3.249l-0.042,0.028l-0.005,6.24 c0.122,2.387,1.697,4.384,3.854,5.134l24.319,7.647c0.337,0.079,0.68,0.131,1.041,0.131c0.379,0,0.745-0.052,1.097-0.146 l39.375-17.053c0,0,0.98-0.304,1.439-1.072c0.361-0.619,0.38-1.844,0.38-1.844L85.403,72.718z M58.063,15.844 c0.296,0,0.558,0.126,0.745,0.329c1.188,1.106,1.75,2.93,1.75,4.91v18.481l-0.005,0.006v0.015c0,0.472-0.38,0.86-0.854,0.86 c-0.122,0-0.234-0.032-0.342-0.079c-1.37-0.398-2.265-1.05-2.265-1.782h-0.005l-0.006-21.075c0-0.187-0.009-0.366-0.018-0.544 l0.004-0.005c-0.004-0.036-0.014-0.076-0.014-0.107C57.056,16.29,57.511,15.844,58.063,15.844z M55.991,18.204v14.791l-10.066,2.842 V25.301c0-11.609,2.635-13.053,6.363-13.124C54.613,12.177,55.991,14.991,55.991,18.204z M33.979,21.677 c0.122-12.555,5.692-18.21,13.32-19.883c0.736-0.137,3.545-0.553,4.347,1.218c0.643,1.43-1.623,2.448-2.162,2.664 c-5.228,1.567-8.749,5.997-8.749,16.119v22.477l-0.014-0.009c-0.169,1.623-1.608,2.176-3.366,2.176 c-1.866,0-3.381-0.627-3.381-2.493C33.974,43.944,33.979,21.714,33.979,21.677z M56.244,83.971c-0.571,0-1.04-0.465-1.04-1.041 c0-0.572,0.469-1.036,1.04-1.036c0.573,0,1.037,0.464,1.037,1.036C57.281,83.506,56.817,83.971,56.244,83.971z M56.244,69.469 c-0.571,0-1.04-0.465-1.04-1.041c0-0.571,0.469-1.041,1.04-1.041c0.573,0,1.037,0.47,1.037,1.041 C57.281,69.004,56.817,69.469,56.244,69.469z M81.075,41.79L43.872,53.345c-0.22,0.042-0.445,0.07-0.675,0.07 c-0.427,0-0.834-0.074-1.214-0.206v0.009l-12.35-3.686c-0.952-0.444-2.086-0.028-2.527,0.929c-0.445,0.956-0.023,2.092,0.928,2.537 l12.556,3.638c1.486,0.455,2.574,1.824,2.603,3.451v3.892c0,1.257-0.272,4.018-2.598,3.451l-10.962-3.277 c-0.952-0.441-2.086-0.024-2.527,0.933c-0.445,0.962-0.023,2.091,0.928,2.536l12.556,3.906c0.136,0.042,0.272,0.098,0.403,0.154 c0.572,0.115,1.627,0.221,2.944-0.196l7.91-2.689c0.54-0.185,1.125,0.105,1.312,0.64c0.188,0.544-0.103,1.135-0.642,1.318 l-8.106,2.752c-0.263,0.126-1.107,0.609-1.219,1.819v3.192c0,1.257-0.272,4.018-2.603,3.441l0,0l-10.957-3.268 c-0.952-0.445-2.086-0.028-2.527,0.933c-0.445,0.952-0.023,2.086,0.928,2.532l12.556,3.91c0.07,0.02,0.136,0.042,0.207,0.065 c0.497,0.137,1.65,0.329,3.141-0.146l7.91-2.687c0.54-0.183,1.125,0.104,1.312,0.638c0.188,0.544-0.103,1.13-0.642,1.317 l-8.106,2.753c-0.263,0.126-1.107,0.608-1.219,1.814v3.254c-0.075,1.383-1.219,2.489-2.626,2.489c-0.234,0-0.455-0.032-0.67-0.089 l-21.028-6.564l0,0c-1.073-0.328-1.857-1.331-1.857-2.513v-0.014l0,0v-3.668c0-1.097,0-2.081,0.005-2.076 c0.08-0.76,0.717-1.346,1.496-1.346c0.131,0,0.263,0.019,0.38,0.052c0.197,0.065,0.403,0.105,0.619,0.105 c1.064,0,1.923-0.865,1.923-1.93c0-0.866-0.582-1.608-1.379-1.847c0,0-1.993-0.601-2.006-0.605 c-0.567-0.183-0.984-0.684-1.037-1.294c0,0,0-0.136-0.004-0.36c0.004-2.365,0.004-7.361,0.009-7.356 c0.08-0.761,0.717-1.351,1.496-1.351c0.131,0,0.263,0.023,0.38,0.056c0.197,0.065,0.403,0.104,0.619,0.104 c1.064,0,1.923-0.862,1.923-1.928c0-0.871-0.582-1.611-1.379-1.847c0,0-1.993-0.601-2.006-0.604 c-0.567-0.179-0.984-0.685-1.037-1.297c-0.004,0.007-0.014-10.3-0.014-10.3c0-1.245,0.872-2.292,2.035-2.559l12.819-3.84v4.22h0.009 c0,1.571,3.15,2.846,7.033,2.846c3.882,0,7.033-1.275,7.033-2.846V38.29l9.804-2.937l0,0c0.083-0.026,0.177-0.047,0.262-0.064v4.918 h0.005c0,1.458,2.936,2.644,6.555,2.644c3.62,0,6.555-1.186,6.555-2.644l-0.005-2.472l11.961,3.043 c0.206,0.075,0.356,0.271,0.356,0.507C81.418,41.514,81.277,41.707,81.075,41.79z"/>
    <path d="M21.671,47.287c-1.036,0-1.871,0.839-1.871,1.87c0,1.033,0.834,1.867,1.871,1.867 c1.032,0,1.866-0.834,1.866-1.867C23.537,48.126,22.703,47.287,21.671,47.287z"/>
</svg>