<svg xmlns="http://www.w3.org/2000/svg" xmlns:xlink="http://www.w3.org/1999/xlink" version="1.1" id="Layer_1" x="0px" y="0px" width="100px" height="100px" viewBox="0 0 100 100" enable-background="new 0 0 100 100" xml:space="preserve">
<path d="M93.92,45H90V21.8c0-1.153-0.872-1.8-2.024-1.8H7.179C6.026,20,5,20.647,5,21.8v45.532C5,68.484,6.026,70,7.179,70h30.918  l-0.904,6.799l-3.04,0.537c-0.195,0.046-0.325,0.173-0.301,0.372C33.874,77.907,34.042,78,34.243,78H59.5  c0.2,0,0.369-0.183,0.392-0.381c0.023-0.199-0.106-0.41-0.302-0.456l-3.04-0.391L55.646,70H63v6.681C63,77.396,63.475,78,64.19,78  h7.013h2.268H93.92c0.655,0,1.08-0.554,1.08-1.209V46.309C95,45.654,94.575,45,93.92,45z M46.948,21.599  c0.175,0,0.316,0.142,0.316,0.317s-0.142,0.316-0.316,0.316c-0.175,0-0.317-0.142-0.317-0.316S46.773,21.599,46.948,21.599z   M63,55.746v0.926l0,0v1l0,0v1l0,0v1l0,0v1l0,0v1l0,0V64H8V24h79v21H71.203C70.548,45,70,45.654,70,46.309V55h-5.81  C63.475,55,63,55.031,63,55.746z M82.855,46.915c0,0.171-0.139,0.31-0.31,0.31c-0.171,0-0.31-0.139-0.31-0.31  c0-0.171,0.139-0.31,0.31-0.31C82.716,46.605,82.855,46.744,82.855,46.915z M69.878,56.393c0,0.134-0.108,0.244-0.242,0.244  l-1.511-0.002c-0.133,0-0.242-0.11-0.242-0.244s0.108-0.244,0.242-0.244h1.511C69.77,56.146,69.878,56.259,69.878,56.393z   M67.128,56.396c0,0.134-0.108,0.242-0.242,0.242c-0.133,0-0.242-0.108-0.242-0.242c0-0.133,0.108-0.242,0.242-0.242  C67.02,56.155,67.128,56.263,67.128,56.396z M68.927,76.865c-0.583,0-1.056-0.473-1.056-1.055c0-0.583,0.473-1.056,1.056-1.056  c0.583,0,1.055,0.473,1.055,1.056C69.982,76.392,69.509,76.865,68.927,76.865z M74,74H64V59h10V74z M82.545,77.036  c-0.403,0-0.73-0.327-0.73-0.73s0.327-0.73,0.73-0.73s0.73,0.327,0.73,0.73S82.948,77.036,82.545,77.036z M93,75H75V55.746  C75,55.031,74.186,55,73.471,55H73v-6h20V75z"/>
</svg>