<svg xmlns="http://www.w3.org/2000/svg" xmlns:xlink="http://www.w3.org/1999/xlink" version="1.1" x="0px" y="0px" width="100px" height="100px" viewBox="0 0 98.549 100" enable-background="new 0 0 98.549 100" xml:space="preserve">
<g id="Background">
</g>
<g id="Pictograms">
  <rect x="13.691" y="86.157" width="37.171" height="5.407"></rect>
  <path d="M53.549,26.01v-3.38h2.04v-6.08H8.959v6.08h2.04v55.42h-2.04v5.4h46.63v-5.4h-2.04v-4.06h17.36c3.79,0,6.99-2.92,6.99-6.72   V45.15c0-3.79,3.01-6.98,6.8-6.98h0.47c3.79,0,6.92-3.02,6.92-6.81v-5.35H53.549z M51.549,78.06h-38.55V22.63h38.55V78.06z    M58.299,69.94h-3.38v-4.06h3.38V69.94z M58.299,34.12h-3.38v-3.38h3.38V34.12z M65.729,69.94h-3.38v-4.06h3.38V69.94z    M65.729,34.12h-4.05v-3.38h4.05V34.12z M72.489,69.94h-3.38v-4.06h3.38V69.94z M72.489,34.12h-4.05v-3.38h4.05V34.12z    M79.249,34.12h-3.38v-3.38h3.38V34.12z"></path>
  <rect x="12.999" y="78.05" width="38.55" height="0.01"></rect>
  <rect x="13.691" y="8.436" width="37.171" height="5.407"></rect>
</g>
<g id="Guides">
</g>
</svg>
